# xmcd CD database file
#
# Track frame offsets:
#	182
#	40180
#	76295
#	121862
#	155642
#	197012
#	235527
#	273417
#
# Disc length: 4121 seconds
#
# Revision: 0
# Processed by: cddbd v1.4PL0 Copyright (c) Steve Scherf et al.
# Submitted via: CDex 1.50beta10
#
DISCID=5d101708
DTITLE=Eddie "Lockjaw" Davis and Sonny Stitt - Jaws and Stitt At Birdland
DYEAR=1954
DGENRE=Jazz
TTITLE0=Marchin'
TTITLE1=S.O.S.
TTITLE2=Jaws
TTITLE3=I Can't Get Started
TTITLE4=Roller Coaster
TTITLE5=All The Things You Are
TTITLE6=Whoops
TTITLE7=Don't Blame Me
EXTD=YEAR: 1954
EXTT0=
EXTT1=
EXTT2=
EXTT3=
EXTT4=
EXTT5=
EXTT6=
EXTT7=
PLAYORDER=
